<?xml version="1.0" encoding="UTF-8"?>
<svg xmlns="http://www.w3.org/2000/svg" version="1.1" width="80" height="80" viewBox="0 0 80 80"><rect x="0" y="0" width="80" height="80" fill="#ffffff"/><g transform="scale(3.2)"><g transform="translate(0,0)"><path fill-rule="evenodd" d="M11 0L11 1L10 1L10 2L9 2L9 1L8 1L8 2L9 2L9 3L8 3L8 4L9 4L9 5L8 5L8 7L9 7L9 8L6 8L6 9L5 9L5 8L0 8L0 10L1 10L1 9L2 9L2 10L3 10L3 11L4 11L4 12L3 12L3 13L4 13L4 14L3 14L3 16L2 16L2 17L3 17L3 16L4 16L4 17L5 17L5 16L6 16L6 17L8 17L8 19L10 19L10 20L8 20L8 25L9 25L9 24L10 24L10 25L11 25L11 24L13 24L13 25L16 25L16 24L17 24L17 23L18 23L18 25L25 25L25 22L24 22L24 24L22 24L22 23L23 23L23 20L22 20L22 19L24 19L24 21L25 21L25 18L23 18L23 16L22 16L22 13L23 13L23 15L24 15L24 16L25 16L25 14L24 14L24 13L25 13L25 10L24 10L24 8L23 8L23 11L24 11L24 12L22 12L22 13L21 13L21 12L18 12L18 11L19 11L19 10L18 10L18 8L16 8L16 7L17 7L17 5L15 5L15 4L14 4L14 3L13 3L13 2L11 2L11 1L15 1L15 2L16 2L16 1L15 1L15 0ZM9 3L9 4L12 4L12 5L9 5L9 7L10 7L10 8L9 8L9 9L12 9L12 10L10 10L10 11L11 11L11 12L10 12L10 13L9 13L9 12L8 12L8 9L6 9L6 10L5 10L5 9L4 9L4 11L6 11L6 12L4 12L4 13L5 13L5 14L4 14L4 15L5 15L5 14L7 14L7 15L6 15L6 16L7 16L7 15L8 15L8 16L9 16L9 15L10 15L10 19L13 19L13 20L14 20L14 19L13 19L13 17L12 17L12 18L11 18L11 15L12 15L12 16L14 16L14 18L15 18L15 19L16 19L16 17L15 17L15 14L16 14L16 16L21 16L21 17L22 17L22 16L21 16L21 13L18 13L18 12L16 12L16 11L17 11L17 9L15 9L15 7L16 7L16 6L15 6L15 5L14 5L14 4L13 4L13 3ZM16 3L16 4L17 4L17 3ZM10 6L10 7L11 7L11 6ZM12 6L12 7L13 7L13 6ZM14 6L14 7L15 7L15 6ZM12 8L12 9L14 9L14 10L15 10L15 11L16 11L16 10L15 10L15 9L14 9L14 8ZM19 8L19 9L20 9L20 8ZM21 8L21 9L22 9L22 8ZM6 10L6 11L7 11L7 10ZM12 10L12 11L13 11L13 10ZM20 10L20 11L22 11L22 10ZM1 11L1 12L2 12L2 11ZM6 12L6 13L7 13L7 14L9 14L9 13L8 13L8 12ZM12 12L12 13L11 13L11 14L10 14L10 15L11 15L11 14L12 14L12 13L14 13L14 14L15 14L15 13L14 13L14 12ZM0 13L0 17L1 17L1 13ZM17 14L17 15L18 15L18 14ZM19 14L19 15L20 15L20 14ZM17 17L17 20L20 20L20 17ZM18 18L18 19L19 19L19 18ZM11 20L11 21L12 21L12 22L10 22L10 21L9 21L9 23L10 23L10 24L11 24L11 23L12 23L12 22L13 22L13 24L14 24L14 23L16 23L16 22L14 22L14 21L12 21L12 20ZM17 21L17 22L18 22L18 23L22 23L22 21L21 21L21 22L18 22L18 21ZM0 0L0 7L7 7L7 0ZM1 1L1 6L6 6L6 1ZM2 2L2 5L5 5L5 2ZM18 0L18 7L25 7L25 0ZM19 1L19 6L24 6L24 1ZM20 2L20 5L23 5L23 2ZM0 18L0 25L7 25L7 18ZM1 19L1 24L6 24L6 19ZM2 20L2 23L5 23L5 20Z" fill="#000000"/></g></g></svg>
